<mxfile host="app.diagrams.net" modified="2023-11-30T06:16:40.311Z" agent="Mozilla/5.0 (Windows NT 10.0; Win64; x64) AppleWebKit/537.36 (KHTML, like Gecko) Chrome/119.0.0.0 Safari/537.36 Edg/119.0.0.0" etag="5Ti2hXr24VsJfyuf_KLX" version="22.1.5" type="github" pages="4">
  <diagram name="ERD" id="lMEs5e1A_-VOneBFKFSz">
    <mxGraphModel dx="1236" dy="614" grid="0" gridSize="10" guides="1" tooltips="1" connect="1" arrows="1" fold="1" page="0" pageScale="1" pageWidth="850" pageHeight="1100" math="0" shadow="0">
      <root>
        <mxCell id="0" />
        <mxCell id="1" parent="0" />
        <mxCell id="86kL3dHlgh31OXQHPd6T-2" value="User" style="shape=table;startSize=30;container=1;collapsible=1;childLayout=tableLayout;fixedRows=1;rowLines=0;fontStyle=1;align=center;resizeLast=1;html=1;" parent="1" vertex="1">
          <mxGeometry x="160" y="170" width="180" height="150" as="geometry" />
        </mxCell>
        <mxCell id="86kL3dHlgh31OXQHPd6T-3" value="" style="shape=tableRow;horizontal=0;startSize=0;swimlaneHead=0;swimlaneBody=0;fillColor=none;collapsible=0;dropTarget=0;points=[[0,0.5],[1,0.5]];portConstraint=eastwest;top=0;left=0;right=0;bottom=1;" parent="86kL3dHlgh31OXQHPd6T-2" vertex="1">
          <mxGeometry y="30" width="180" height="30" as="geometry" />
        </mxCell>
        <mxCell id="86kL3dHlgh31OXQHPd6T-4" value="PK" style="shape=partialRectangle;connectable=0;fillColor=none;top=0;left=0;bottom=0;right=0;fontStyle=1;overflow=hidden;whiteSpace=wrap;html=1;" parent="86kL3dHlgh31OXQHPd6T-3" vertex="1">
          <mxGeometry width="30" height="30" as="geometry">
            <mxRectangle width="30" height="30" as="alternateBounds" />
          </mxGeometry>
        </mxCell>
        <mxCell id="86kL3dHlgh31OXQHPd6T-5" value="userId" style="shape=partialRectangle;connectable=0;fillColor=none;top=0;left=0;bottom=0;right=0;align=left;spacingLeft=6;fontStyle=5;overflow=hidden;whiteSpace=wrap;html=1;" parent="86kL3dHlgh31OXQHPd6T-3" vertex="1">
          <mxGeometry x="30" width="150" height="30" as="geometry">
            <mxRectangle width="150" height="30" as="alternateBounds" />
          </mxGeometry>
        </mxCell>
        <mxCell id="86kL3dHlgh31OXQHPd6T-6" value="" style="shape=tableRow;horizontal=0;startSize=0;swimlaneHead=0;swimlaneBody=0;fillColor=none;collapsible=0;dropTarget=0;points=[[0,0.5],[1,0.5]];portConstraint=eastwest;top=0;left=0;right=0;bottom=0;" parent="86kL3dHlgh31OXQHPd6T-2" vertex="1">
          <mxGeometry y="60" width="180" height="30" as="geometry" />
        </mxCell>
        <mxCell id="86kL3dHlgh31OXQHPd6T-7" value="" style="shape=partialRectangle;connectable=0;fillColor=none;top=0;left=0;bottom=0;right=0;editable=1;overflow=hidden;whiteSpace=wrap;html=1;" parent="86kL3dHlgh31OXQHPd6T-6" vertex="1">
          <mxGeometry width="30" height="30" as="geometry">
            <mxRectangle width="30" height="30" as="alternateBounds" />
          </mxGeometry>
        </mxCell>
        <mxCell id="86kL3dHlgh31OXQHPd6T-8" value="name" style="shape=partialRectangle;connectable=0;fillColor=none;top=0;left=0;bottom=0;right=0;align=left;spacingLeft=6;overflow=hidden;whiteSpace=wrap;html=1;" parent="86kL3dHlgh31OXQHPd6T-6" vertex="1">
          <mxGeometry x="30" width="150" height="30" as="geometry">
            <mxRectangle width="150" height="30" as="alternateBounds" />
          </mxGeometry>
        </mxCell>
        <mxCell id="86kL3dHlgh31OXQHPd6T-9" value="" style="shape=tableRow;horizontal=0;startSize=0;swimlaneHead=0;swimlaneBody=0;fillColor=none;collapsible=0;dropTarget=0;points=[[0,0.5],[1,0.5]];portConstraint=eastwest;top=0;left=0;right=0;bottom=0;" parent="86kL3dHlgh31OXQHPd6T-2" vertex="1">
          <mxGeometry y="90" width="180" height="30" as="geometry" />
        </mxCell>
        <mxCell id="86kL3dHlgh31OXQHPd6T-10" value="" style="shape=partialRectangle;connectable=0;fillColor=none;top=0;left=0;bottom=0;right=0;editable=1;overflow=hidden;whiteSpace=wrap;html=1;" parent="86kL3dHlgh31OXQHPd6T-9" vertex="1">
          <mxGeometry width="30" height="30" as="geometry">
            <mxRectangle width="30" height="30" as="alternateBounds" />
          </mxGeometry>
        </mxCell>
        <mxCell id="86kL3dHlgh31OXQHPd6T-11" value="phonenumber" style="shape=partialRectangle;connectable=0;fillColor=none;top=0;left=0;bottom=0;right=0;align=left;spacingLeft=6;overflow=hidden;whiteSpace=wrap;html=1;" parent="86kL3dHlgh31OXQHPd6T-9" vertex="1">
          <mxGeometry x="30" width="150" height="30" as="geometry">
            <mxRectangle width="150" height="30" as="alternateBounds" />
          </mxGeometry>
        </mxCell>
        <mxCell id="86kL3dHlgh31OXQHPd6T-12" value="" style="shape=tableRow;horizontal=0;startSize=0;swimlaneHead=0;swimlaneBody=0;fillColor=none;collapsible=0;dropTarget=0;points=[[0,0.5],[1,0.5]];portConstraint=eastwest;top=0;left=0;right=0;bottom=0;" parent="86kL3dHlgh31OXQHPd6T-2" vertex="1">
          <mxGeometry y="120" width="180" height="30" as="geometry" />
        </mxCell>
        <mxCell id="86kL3dHlgh31OXQHPd6T-13" value="" style="shape=partialRectangle;connectable=0;fillColor=none;top=0;left=0;bottom=0;right=0;editable=1;overflow=hidden;whiteSpace=wrap;html=1;" parent="86kL3dHlgh31OXQHPd6T-12" vertex="1">
          <mxGeometry width="30" height="30" as="geometry">
            <mxRectangle width="30" height="30" as="alternateBounds" />
          </mxGeometry>
        </mxCell>
        <mxCell id="86kL3dHlgh31OXQHPd6T-14" value="email" style="shape=partialRectangle;connectable=0;fillColor=none;top=0;left=0;bottom=0;right=0;align=left;spacingLeft=6;overflow=hidden;whiteSpace=wrap;html=1;" parent="86kL3dHlgh31OXQHPd6T-12" vertex="1">
          <mxGeometry x="30" width="150" height="30" as="geometry">
            <mxRectangle width="150" height="30" as="alternateBounds" />
          </mxGeometry>
        </mxCell>
        <mxCell id="86kL3dHlgh31OXQHPd6T-15" value="LabelOrder" style="shape=table;startSize=30;container=1;collapsible=1;childLayout=tableLayout;fixedRows=1;rowLines=0;fontStyle=1;align=center;resizeLast=1;html=1;" parent="1" vertex="1">
          <mxGeometry x="440" y="170" width="180" height="120" as="geometry" />
        </mxCell>
        <mxCell id="86kL3dHlgh31OXQHPd6T-19" value="" style="shape=tableRow;horizontal=0;startSize=0;swimlaneHead=0;swimlaneBody=0;fillColor=none;collapsible=0;dropTarget=0;points=[[0,0.5],[1,0.5]];portConstraint=eastwest;top=0;left=0;right=0;bottom=0;" parent="86kL3dHlgh31OXQHPd6T-15" vertex="1">
          <mxGeometry y="30" width="180" height="30" as="geometry" />
        </mxCell>
        <mxCell id="86kL3dHlgh31OXQHPd6T-20" value="FK" style="shape=partialRectangle;connectable=0;fillColor=none;top=0;left=0;bottom=0;right=0;editable=1;overflow=hidden;whiteSpace=wrap;html=1;" parent="86kL3dHlgh31OXQHPd6T-19" vertex="1">
          <mxGeometry width="30" height="30" as="geometry">
            <mxRectangle width="30" height="30" as="alternateBounds" />
          </mxGeometry>
        </mxCell>
        <mxCell id="86kL3dHlgh31OXQHPd6T-21" value="userId (non-unique)" style="shape=partialRectangle;connectable=0;fillColor=none;top=0;left=0;bottom=0;right=0;align=left;spacingLeft=6;overflow=hidden;whiteSpace=wrap;html=1;" parent="86kL3dHlgh31OXQHPd6T-19" vertex="1">
          <mxGeometry x="30" width="150" height="30" as="geometry">
            <mxRectangle width="150" height="30" as="alternateBounds" />
          </mxGeometry>
        </mxCell>
        <mxCell id="86kL3dHlgh31OXQHPd6T-22" value="" style="shape=tableRow;horizontal=0;startSize=0;swimlaneHead=0;swimlaneBody=0;fillColor=none;collapsible=0;dropTarget=0;points=[[0,0.5],[1,0.5]];portConstraint=eastwest;top=0;left=0;right=0;bottom=0;" parent="86kL3dHlgh31OXQHPd6T-15" vertex="1">
          <mxGeometry y="60" width="180" height="30" as="geometry" />
        </mxCell>
        <mxCell id="86kL3dHlgh31OXQHPd6T-23" value="" style="shape=partialRectangle;connectable=0;fillColor=none;top=0;left=0;bottom=0;right=0;editable=1;overflow=hidden;whiteSpace=wrap;html=1;" parent="86kL3dHlgh31OXQHPd6T-22" vertex="1">
          <mxGeometry width="30" height="30" as="geometry">
            <mxRectangle width="30" height="30" as="alternateBounds" />
          </mxGeometry>
        </mxCell>
        <mxCell id="86kL3dHlgh31OXQHPd6T-24" value="order (0, 1, 2, 3,...)" style="shape=partialRectangle;connectable=0;fillColor=none;top=0;left=0;bottom=0;right=0;align=left;spacingLeft=6;overflow=hidden;whiteSpace=wrap;html=1;" parent="86kL3dHlgh31OXQHPd6T-22" vertex="1">
          <mxGeometry x="30" width="150" height="30" as="geometry">
            <mxRectangle width="150" height="30" as="alternateBounds" />
          </mxGeometry>
        </mxCell>
        <mxCell id="86kL3dHlgh31OXQHPd6T-25" value="" style="shape=tableRow;horizontal=0;startSize=0;swimlaneHead=0;swimlaneBody=0;fillColor=none;collapsible=0;dropTarget=0;points=[[0,0.5],[1,0.5]];portConstraint=eastwest;top=0;left=0;right=0;bottom=0;" parent="86kL3dHlgh31OXQHPd6T-15" vertex="1">
          <mxGeometry y="90" width="180" height="30" as="geometry" />
        </mxCell>
        <mxCell id="86kL3dHlgh31OXQHPd6T-26" value="" style="shape=partialRectangle;connectable=0;fillColor=none;top=0;left=0;bottom=0;right=0;editable=1;overflow=hidden;whiteSpace=wrap;html=1;" parent="86kL3dHlgh31OXQHPd6T-25" vertex="1">
          <mxGeometry width="30" height="30" as="geometry">
            <mxRectangle width="30" height="30" as="alternateBounds" />
          </mxGeometry>
        </mxCell>
        <mxCell id="86kL3dHlgh31OXQHPd6T-27" value="label" style="shape=partialRectangle;connectable=0;fillColor=none;top=0;left=0;bottom=0;right=0;align=left;spacingLeft=6;overflow=hidden;whiteSpace=wrap;html=1;" parent="86kL3dHlgh31OXQHPd6T-25" vertex="1">
          <mxGeometry x="30" width="150" height="30" as="geometry">
            <mxRectangle width="150" height="30" as="alternateBounds" />
          </mxGeometry>
        </mxCell>
        <mxCell id="86kL3dHlgh31OXQHPd6T-33" value="" style="edgeStyle=entityRelationEdgeStyle;fontSize=12;html=1;endArrow=ERmany;rounded=0;exitX=1;exitY=0.5;exitDx=0;exitDy=0;entryX=0;entryY=0.5;entryDx=0;entryDy=0;" parent="1" source="86kL3dHlgh31OXQHPd6T-3" target="86kL3dHlgh31OXQHPd6T-19" edge="1">
          <mxGeometry width="100" height="100" relative="1" as="geometry">
            <mxPoint x="190" y="110" as="sourcePoint" />
            <mxPoint x="420" y="165" as="targetPoint" />
          </mxGeometry>
        </mxCell>
        <mxCell id="pZ6oxof077fUnuFagHlV-1" value="CameraUrl" style="shape=table;startSize=30;container=1;collapsible=1;childLayout=tableLayout;fixedRows=1;rowLines=0;fontStyle=1;align=center;resizeLast=1;html=1;" vertex="1" parent="1">
          <mxGeometry x="160" y="361" width="180" height="150" as="geometry" />
        </mxCell>
        <mxCell id="pZ6oxof077fUnuFagHlV-2" value="" style="shape=tableRow;horizontal=0;startSize=0;swimlaneHead=0;swimlaneBody=0;fillColor=none;collapsible=0;dropTarget=0;points=[[0,0.5],[1,0.5]];portConstraint=eastwest;top=0;left=0;right=0;bottom=1;" vertex="1" parent="pZ6oxof077fUnuFagHlV-1">
          <mxGeometry y="30" width="180" height="30" as="geometry" />
        </mxCell>
        <mxCell id="pZ6oxof077fUnuFagHlV-3" value="PK" style="shape=partialRectangle;connectable=0;fillColor=none;top=0;left=0;bottom=0;right=0;fontStyle=1;overflow=hidden;whiteSpace=wrap;html=1;" vertex="1" parent="pZ6oxof077fUnuFagHlV-2">
          <mxGeometry width="30" height="30" as="geometry">
            <mxRectangle width="30" height="30" as="alternateBounds" />
          </mxGeometry>
        </mxCell>
        <mxCell id="pZ6oxof077fUnuFagHlV-4" value="id" style="shape=partialRectangle;connectable=0;fillColor=none;top=0;left=0;bottom=0;right=0;align=left;spacingLeft=6;fontStyle=5;overflow=hidden;whiteSpace=wrap;html=1;" vertex="1" parent="pZ6oxof077fUnuFagHlV-2">
          <mxGeometry x="30" width="150" height="30" as="geometry">
            <mxRectangle width="150" height="30" as="alternateBounds" />
          </mxGeometry>
        </mxCell>
        <mxCell id="pZ6oxof077fUnuFagHlV-5" value="" style="shape=tableRow;horizontal=0;startSize=0;swimlaneHead=0;swimlaneBody=0;fillColor=none;collapsible=0;dropTarget=0;points=[[0,0.5],[1,0.5]];portConstraint=eastwest;top=0;left=0;right=0;bottom=0;" vertex="1" parent="pZ6oxof077fUnuFagHlV-1">
          <mxGeometry y="60" width="180" height="30" as="geometry" />
        </mxCell>
        <mxCell id="pZ6oxof077fUnuFagHlV-6" value="" style="shape=partialRectangle;connectable=0;fillColor=none;top=0;left=0;bottom=0;right=0;editable=1;overflow=hidden;whiteSpace=wrap;html=1;" vertex="1" parent="pZ6oxof077fUnuFagHlV-5">
          <mxGeometry width="30" height="30" as="geometry">
            <mxRectangle width="30" height="30" as="alternateBounds" />
          </mxGeometry>
        </mxCell>
        <mxCell id="pZ6oxof077fUnuFagHlV-7" value="url" style="shape=partialRectangle;connectable=0;fillColor=none;top=0;left=0;bottom=0;right=0;align=left;spacingLeft=6;overflow=hidden;whiteSpace=wrap;html=1;" vertex="1" parent="pZ6oxof077fUnuFagHlV-5">
          <mxGeometry x="30" width="150" height="30" as="geometry">
            <mxRectangle width="150" height="30" as="alternateBounds" />
          </mxGeometry>
        </mxCell>
        <mxCell id="pZ6oxof077fUnuFagHlV-8" value="" style="shape=tableRow;horizontal=0;startSize=0;swimlaneHead=0;swimlaneBody=0;fillColor=none;collapsible=0;dropTarget=0;points=[[0,0.5],[1,0.5]];portConstraint=eastwest;top=0;left=0;right=0;bottom=0;" vertex="1" parent="pZ6oxof077fUnuFagHlV-1">
          <mxGeometry y="90" width="180" height="30" as="geometry" />
        </mxCell>
        <mxCell id="pZ6oxof077fUnuFagHlV-9" value="" style="shape=partialRectangle;connectable=0;fillColor=none;top=0;left=0;bottom=0;right=0;editable=1;overflow=hidden;whiteSpace=wrap;html=1;" vertex="1" parent="pZ6oxof077fUnuFagHlV-8">
          <mxGeometry width="30" height="30" as="geometry">
            <mxRectangle width="30" height="30" as="alternateBounds" />
          </mxGeometry>
        </mxCell>
        <mxCell id="pZ6oxof077fUnuFagHlV-10" value="createAt" style="shape=partialRectangle;connectable=0;fillColor=none;top=0;left=0;bottom=0;right=0;align=left;spacingLeft=6;overflow=hidden;whiteSpace=wrap;html=1;" vertex="1" parent="pZ6oxof077fUnuFagHlV-8">
          <mxGeometry x="30" width="150" height="30" as="geometry">
            <mxRectangle width="150" height="30" as="alternateBounds" />
          </mxGeometry>
        </mxCell>
        <mxCell id="pZ6oxof077fUnuFagHlV-11" value="" style="shape=tableRow;horizontal=0;startSize=0;swimlaneHead=0;swimlaneBody=0;fillColor=none;collapsible=0;dropTarget=0;points=[[0,0.5],[1,0.5]];portConstraint=eastwest;top=0;left=0;right=0;bottom=0;" vertex="1" parent="pZ6oxof077fUnuFagHlV-1">
          <mxGeometry y="120" width="180" height="30" as="geometry" />
        </mxCell>
        <mxCell id="pZ6oxof077fUnuFagHlV-12" value="" style="shape=partialRectangle;connectable=0;fillColor=none;top=0;left=0;bottom=0;right=0;editable=1;overflow=hidden;whiteSpace=wrap;html=1;" vertex="1" parent="pZ6oxof077fUnuFagHlV-11">
          <mxGeometry width="30" height="30" as="geometry">
            <mxRectangle width="30" height="30" as="alternateBounds" />
          </mxGeometry>
        </mxCell>
        <mxCell id="pZ6oxof077fUnuFagHlV-13" value="status" style="shape=partialRectangle;connectable=0;fillColor=none;top=0;left=0;bottom=0;right=0;align=left;spacingLeft=6;overflow=hidden;whiteSpace=wrap;html=1;" vertex="1" parent="pZ6oxof077fUnuFagHlV-11">
          <mxGeometry x="30" width="150" height="30" as="geometry">
            <mxRectangle width="150" height="30" as="alternateBounds" />
          </mxGeometry>
        </mxCell>
      </root>
    </mxGraphModel>
  </diagram>
  <diagram id="L5UDp4rwYnVXYb-ExI24" name="Mobile App Features Flow">
    <mxGraphModel dx="1412" dy="609" grid="0" gridSize="10" guides="1" tooltips="1" connect="1" arrows="1" fold="1" page="0" pageScale="1" pageWidth="850" pageHeight="1100" math="0" shadow="0">
      <root>
        <mxCell id="0" />
        <mxCell id="1" parent="0" />
        <mxCell id="Fh4GGejoJeYBjuRcW_qC-19" style="edgeStyle=orthogonalEdgeStyle;rounded=0;orthogonalLoop=1;jettySize=auto;html=1;entryX=0.25;entryY=1;entryDx=0;entryDy=0;" parent="1" source="Fh4GGejoJeYBjuRcW_qC-7" target="Fh4GGejoJeYBjuRcW_qC-12" edge="1">
          <mxGeometry relative="1" as="geometry" />
        </mxCell>
        <mxCell id="Fh4GGejoJeYBjuRcW_qC-7" value="Mobile Appication Features" style="swimlane;fontStyle=0;childLayout=stackLayout;horizontal=1;startSize=30;horizontalStack=0;resizeParent=1;resizeParentMax=0;resizeLast=0;collapsible=1;marginBottom=0;whiteSpace=wrap;html=1;" parent="1" vertex="1">
          <mxGeometry x="20" y="290" width="300" height="150" as="geometry" />
        </mxCell>
        <mxCell id="Fh4GGejoJeYBjuRcW_qC-8" value="Hiển thị video từ camera Esp32 trên ứng dụng" style="text;strokeColor=none;fillColor=none;align=left;verticalAlign=middle;spacingLeft=4;spacingRight=4;overflow=hidden;points=[[0,0.5],[1,0.5]];portConstraint=eastwest;rotatable=0;whiteSpace=wrap;html=1;" parent="Fh4GGejoJeYBjuRcW_qC-7" vertex="1">
          <mxGeometry y="30" width="300" height="30" as="geometry" />
        </mxCell>
        <mxCell id="Fh4GGejoJeYBjuRcW_qC-9" value="Điều chỉnh góc quay của camera thông qua động cơ" style="text;strokeColor=none;fillColor=none;align=left;verticalAlign=middle;spacingLeft=4;spacingRight=4;overflow=hidden;points=[[0,0.5],[1,0.5]];portConstraint=eastwest;rotatable=0;whiteSpace=wrap;html=1;" parent="Fh4GGejoJeYBjuRcW_qC-7" vertex="1">
          <mxGeometry y="60" width="300" height="30" as="geometry" />
        </mxCell>
        <mxCell id="Fh4GGejoJeYBjuRcW_qC-10" value="Hiển thị tên hành động vừa nhận diện." style="text;strokeColor=none;fillColor=none;align=left;verticalAlign=middle;spacingLeft=4;spacingRight=4;overflow=hidden;points=[[0,0.5],[1,0.5]];portConstraint=eastwest;rotatable=0;whiteSpace=wrap;html=1;" parent="Fh4GGejoJeYBjuRcW_qC-7" vertex="1">
          <mxGeometry y="90" width="300" height="30" as="geometry" />
        </mxCell>
        <mxCell id="Fh4GGejoJeYBjuRcW_qC-11" value="Người dùng có thể thay đổi tính năng của hành động." style="text;strokeColor=none;fillColor=none;align=left;verticalAlign=middle;spacingLeft=4;spacingRight=4;overflow=hidden;points=[[0,0.5],[1,0.5]];portConstraint=eastwest;rotatable=0;whiteSpace=wrap;html=1;" parent="Fh4GGejoJeYBjuRcW_qC-7" vertex="1">
          <mxGeometry y="120" width="300" height="30" as="geometry" />
        </mxCell>
        <mxCell id="Fh4GGejoJeYBjuRcW_qC-26" style="edgeStyle=orthogonalEdgeStyle;rounded=0;orthogonalLoop=1;jettySize=auto;html=1;exitX=1;exitY=0.5;exitDx=0;exitDy=0;" parent="1" source="Fh4GGejoJeYBjuRcW_qC-12" target="Fh4GGejoJeYBjuRcW_qC-24" edge="1">
          <mxGeometry relative="1" as="geometry">
            <Array as="points">
              <mxPoint x="-10" y="130" />
              <mxPoint x="-10" y="130" />
            </Array>
          </mxGeometry>
        </mxCell>
        <mxCell id="Fh4GGejoJeYBjuRcW_qC-12" value="Esp32" style="rounded=0;whiteSpace=wrap;html=1;" parent="1" vertex="1">
          <mxGeometry x="-260" y="100" width="120" height="60" as="geometry" />
        </mxCell>
        <mxCell id="Fh4GGejoJeYBjuRcW_qC-15" style="edgeStyle=orthogonalEdgeStyle;rounded=0;orthogonalLoop=1;jettySize=auto;html=1;entryX=0.5;entryY=1;entryDx=0;entryDy=0;" parent="1" source="Fh4GGejoJeYBjuRcW_qC-8" target="Fh4GGejoJeYBjuRcW_qC-12" edge="1">
          <mxGeometry relative="1" as="geometry" />
        </mxCell>
        <mxCell id="Fh4GGejoJeYBjuRcW_qC-16" value="Hiển thị video từ camera" style="text;html=1;strokeColor=none;fillColor=none;align=center;verticalAlign=middle;whiteSpace=wrap;rounded=0;" parent="1" vertex="1">
          <mxGeometry x="-130" y="310" width="150" height="30" as="geometry" />
        </mxCell>
        <mxCell id="Fh4GGejoJeYBjuRcW_qC-17" value="Lý do: để người sử dụng có thể kiểm tra được vị trí bản thân đứng đã phù hợp hay chưa" style="ellipse;whiteSpace=wrap;html=1;" parent="1" vertex="1">
          <mxGeometry x="-470" y="360" width="210" height="140" as="geometry" />
        </mxCell>
        <mxCell id="Fh4GGejoJeYBjuRcW_qC-18" style="edgeStyle=orthogonalEdgeStyle;rounded=0;orthogonalLoop=1;jettySize=auto;html=1;entryX=0.5;entryY=0;entryDx=0;entryDy=0;" parent="1" source="Fh4GGejoJeYBjuRcW_qC-8" target="Fh4GGejoJeYBjuRcW_qC-17" edge="1">
          <mxGeometry relative="1" as="geometry" />
        </mxCell>
        <mxCell id="Fh4GGejoJeYBjuRcW_qC-20" value="Điều chỉnh góc quay" style="text;html=1;strokeColor=none;fillColor=none;align=center;verticalAlign=middle;whiteSpace=wrap;rounded=0;" parent="1" vertex="1">
          <mxGeometry x="-130" y="360" width="150" height="30" as="geometry" />
        </mxCell>
        <mxCell id="Fh4GGejoJeYBjuRcW_qC-22" value="Lý do: Khi người sử dụng cảm thấy vị trí của mình vẫn chưa phù hợp, thay vì thay đổi vị trí của bản thân thì có thể thay đổi góc độ của camera để phù hợp hơn" style="ellipse;whiteSpace=wrap;html=1;" parent="1" vertex="1">
          <mxGeometry x="-290" y="480" width="260" height="170" as="geometry" />
        </mxCell>
        <mxCell id="Fh4GGejoJeYBjuRcW_qC-23" style="edgeStyle=orthogonalEdgeStyle;rounded=0;orthogonalLoop=1;jettySize=auto;html=1;exitX=0;exitY=0.5;exitDx=0;exitDy=0;entryX=0.5;entryY=0;entryDx=0;entryDy=0;" parent="1" source="Fh4GGejoJeYBjuRcW_qC-9" target="Fh4GGejoJeYBjuRcW_qC-22" edge="1">
          <mxGeometry relative="1" as="geometry" />
        </mxCell>
        <mxCell id="Fh4GGejoJeYBjuRcW_qC-24" value="Server&lt;br&gt;(Nhận diện hành động)" style="rounded=0;whiteSpace=wrap;html=1;" parent="1" vertex="1">
          <mxGeometry x="45" y="100" width="250" height="110" as="geometry" />
        </mxCell>
        <mxCell id="Fh4GGejoJeYBjuRcW_qC-25" value="data" style="shape=cylinder3;whiteSpace=wrap;html=1;boundedLbl=1;backgroundOutline=1;size=15;" parent="1" vertex="1">
          <mxGeometry x="240" y="110" width="45" height="60" as="geometry" />
        </mxCell>
        <mxCell id="Fh4GGejoJeYBjuRcW_qC-27" style="edgeStyle=orthogonalEdgeStyle;rounded=0;orthogonalLoop=1;jettySize=auto;html=1;entryX=1;entryY=0.25;entryDx=0;entryDy=0;" parent="1" source="Fh4GGejoJeYBjuRcW_qC-10" target="Fh4GGejoJeYBjuRcW_qC-24" edge="1">
          <mxGeometry relative="1" as="geometry">
            <Array as="points">
              <mxPoint x="360" y="395" />
              <mxPoint x="360" y="127" />
            </Array>
          </mxGeometry>
        </mxCell>
        <mxCell id="Fh4GGejoJeYBjuRcW_qC-28" value="Nhận nhãn đã được hệ thống nhận diện" style="text;html=1;strokeColor=none;fillColor=none;align=center;verticalAlign=middle;whiteSpace=wrap;rounded=0;" parent="1" vertex="1">
          <mxGeometry x="360" y="180" width="150" height="30" as="geometry" />
        </mxCell>
        <mxCell id="Fh4GGejoJeYBjuRcW_qC-29" style="edgeStyle=orthogonalEdgeStyle;rounded=0;orthogonalLoop=1;jettySize=auto;html=1;entryX=1;entryY=0.5;entryDx=0;entryDy=0;entryPerimeter=0;" parent="1" source="Fh4GGejoJeYBjuRcW_qC-11" target="Fh4GGejoJeYBjuRcW_qC-25" edge="1">
          <mxGeometry relative="1" as="geometry">
            <Array as="points">
              <mxPoint x="370" y="425" />
              <mxPoint x="370" y="140" />
            </Array>
          </mxGeometry>
        </mxCell>
        <mxCell id="Fh4GGejoJeYBjuRcW_qC-30" value="Thay đổi nhãn nhận biết các hành động với nhau" style="text;html=1;strokeColor=none;fillColor=none;align=center;verticalAlign=middle;whiteSpace=wrap;rounded=0;" parent="1" vertex="1">
          <mxGeometry x="370" y="300" width="150" height="30" as="geometry" />
        </mxCell>
      </root>
    </mxGraphModel>
  </diagram>
  <diagram id="VrgobTLVYJfGBjsMO43E" name="Flow application">
    <mxGraphModel dx="1624" dy="1218" grid="0" gridSize="10" guides="1" tooltips="1" connect="1" arrows="1" fold="1" page="0" pageScale="1" pageWidth="850" pageHeight="1100" math="0" shadow="0">
      <root>
        <mxCell id="0" />
        <mxCell id="1" parent="0" />
        <mxCell id="a7vQmODgoS0YRXL1s6T2-16" value="" style="group;align=left;" parent="1" vertex="1" connectable="0">
          <mxGeometry x="-280" y="120" width="310" height="180" as="geometry" />
        </mxCell>
        <mxCell id="a7vQmODgoS0YRXL1s6T2-14" value="" style="rounded=0;whiteSpace=wrap;html=1;" parent="a7vQmODgoS0YRXL1s6T2-16" vertex="1">
          <mxGeometry y="30" width="280" height="150" as="geometry" />
        </mxCell>
        <mxCell id="a7vQmODgoS0YRXL1s6T2-15" value="Vi điều khiển" style="rounded=0;whiteSpace=wrap;html=1;" parent="a7vQmODgoS0YRXL1s6T2-16" vertex="1">
          <mxGeometry width="142.08333333333331" height="50" as="geometry" />
        </mxCell>
        <mxCell id="a7vQmODgoS0YRXL1s6T2-25" value="Quay cử động của người" style="rounded=0;whiteSpace=wrap;html=1;" parent="a7vQmODgoS0YRXL1s6T2-16" vertex="1">
          <mxGeometry x="155" y="75" width="115" height="60" as="geometry" />
        </mxCell>
        <mxCell id="a7vQmODgoS0YRXL1s6T2-26" value="Thay đổi góc độ camera thông qua động cơ" style="rounded=0;whiteSpace=wrap;html=1;" parent="a7vQmODgoS0YRXL1s6T2-16" vertex="1">
          <mxGeometry x="12.916666666666673" y="75" width="116.25000000000003" height="60" as="geometry" />
        </mxCell>
        <mxCell id="a7vQmODgoS0YRXL1s6T2-17" value="" style="group" parent="1" vertex="1" connectable="0">
          <mxGeometry x="120" y="220" width="540" height="300" as="geometry" />
        </mxCell>
        <mxCell id="a7vQmODgoS0YRXL1s6T2-18" value="" style="rounded=0;whiteSpace=wrap;html=1;" parent="a7vQmODgoS0YRXL1s6T2-17" vertex="1">
          <mxGeometry y="50" width="400" height="250" as="geometry" />
        </mxCell>
        <mxCell id="kC6aO7tEve5d9k2F0OwN-14" style="edgeStyle=orthogonalEdgeStyle;rounded=0;orthogonalLoop=1;jettySize=auto;html=1;exitX=0.5;exitY=1;exitDx=0;exitDy=0;entryX=0.5;entryY=0;entryDx=0;entryDy=0;" parent="a7vQmODgoS0YRXL1s6T2-17" source="a7vQmODgoS0YRXL1s6T2-19" target="OYDhkcO9sHFflH4jiFGf-1" edge="1">
          <mxGeometry relative="1" as="geometry" />
        </mxCell>
        <mxCell id="a7vQmODgoS0YRXL1s6T2-19" value="Server" style="rounded=0;whiteSpace=wrap;html=1;" parent="a7vQmODgoS0YRXL1s6T2-17" vertex="1">
          <mxGeometry width="220" height="83.33333333333334" as="geometry" />
        </mxCell>
        <mxCell id="OYDhkcO9sHFflH4jiFGf-4" style="edgeStyle=orthogonalEdgeStyle;rounded=0;orthogonalLoop=1;jettySize=auto;html=1;exitX=0.5;exitY=1;exitDx=0;exitDy=0;entryX=0.5;entryY=0;entryDx=0;entryDy=0;" parent="a7vQmODgoS0YRXL1s6T2-17" source="OYDhkcO9sHFflH4jiFGf-1" target="OYDhkcO9sHFflH4jiFGf-2" edge="1">
          <mxGeometry relative="1" as="geometry" />
        </mxCell>
        <mxCell id="OYDhkcO9sHFflH4jiFGf-1" value="Phân tích dữ liệu về chuyền động tay" style="rounded=0;whiteSpace=wrap;html=1;" parent="a7vQmODgoS0YRXL1s6T2-17" vertex="1">
          <mxGeometry x="51" y="110" width="120" height="60" as="geometry" />
        </mxCell>
        <mxCell id="kC6aO7tEve5d9k2F0OwN-12" style="edgeStyle=orthogonalEdgeStyle;rounded=0;orthogonalLoop=1;jettySize=auto;html=1;entryX=0;entryY=0.5;entryDx=0;entryDy=0;" parent="a7vQmODgoS0YRXL1s6T2-17" source="OYDhkcO9sHFflH4jiFGf-2" target="OYDhkcO9sHFflH4jiFGf-3" edge="1">
          <mxGeometry relative="1" as="geometry">
            <mxPoint x="250" y="230" as="targetPoint" />
          </mxGeometry>
        </mxCell>
        <mxCell id="OYDhkcO9sHFflH4jiFGf-2" value="Xác định cử chỉ tay" style="rounded=0;whiteSpace=wrap;html=1;" parent="a7vQmODgoS0YRXL1s6T2-17" vertex="1">
          <mxGeometry x="51" y="200" width="120" height="60" as="geometry" />
        </mxCell>
        <mxCell id="OYDhkcO9sHFflH4jiFGf-3" value="Xác nhận lệnh điều khiển tương ứng" style="rounded=0;whiteSpace=wrap;html=1;" parent="a7vQmODgoS0YRXL1s6T2-17" vertex="1">
          <mxGeometry x="250" y="110" width="120" height="150" as="geometry" />
        </mxCell>
        <mxCell id="kC6aO7tEve5d9k2F0OwN-16" value="Mảng tính năng các hành động" style="rounded=0;whiteSpace=wrap;html=1;" parent="a7vQmODgoS0YRXL1s6T2-17" vertex="1">
          <mxGeometry x="275" y="205" width="70" height="50" as="geometry" />
        </mxCell>
        <mxCell id="a7vQmODgoS0YRXL1s6T2-20" value="" style="group" parent="1" vertex="1" connectable="0">
          <mxGeometry x="-280" y="370" width="320" height="270" as="geometry" />
        </mxCell>
        <mxCell id="a7vQmODgoS0YRXL1s6T2-21" value="" style="rounded=0;whiteSpace=wrap;html=1;" parent="a7vQmODgoS0YRXL1s6T2-20" vertex="1">
          <mxGeometry y="45" width="281.6" height="225" as="geometry" />
        </mxCell>
        <mxCell id="a7vQmODgoS0YRXL1s6T2-22" value="Mobile application" style="rounded=0;whiteSpace=wrap;html=1;" parent="a7vQmODgoS0YRXL1s6T2-20" vertex="1">
          <mxGeometry width="140.8" height="75" as="geometry" />
        </mxCell>
        <mxCell id="QhW_c4WJMgv_Kwbsom_R-2" value="Điều chỉnh góc quay của camera" style="rounded=0;whiteSpace=wrap;html=1;" parent="a7vQmODgoS0YRXL1s6T2-20" vertex="1">
          <mxGeometry x="12.8" y="90" width="115.2" height="60" as="geometry" />
        </mxCell>
        <mxCell id="QhW_c4WJMgv_Kwbsom_R-1" value="Người dùng có thể thay đổi tính năng của hành động." style="rounded=0;whiteSpace=wrap;html=1;" parent="a7vQmODgoS0YRXL1s6T2-20" vertex="1">
          <mxGeometry x="12.8" y="190" width="115.2" height="60" as="geometry" />
        </mxCell>
        <mxCell id="Y7PyBvBHvJIJX8ZfNPcy-6" value="Hiển thị tên hành động vừa nhận diện." style="rounded=0;whiteSpace=wrap;html=1;" parent="a7vQmODgoS0YRXL1s6T2-20" vertex="1">
          <mxGeometry x="153.6" y="190" width="115.2" height="60" as="geometry" />
        </mxCell>
        <mxCell id="QhW_c4WJMgv_Kwbsom_R-3" value="Hiển thị video từ camera Esp32 trên ứng dụng" style="rounded=0;whiteSpace=wrap;html=1;" parent="a7vQmODgoS0YRXL1s6T2-20" vertex="1">
          <mxGeometry x="153.6" y="90" width="115.2" height="60" as="geometry" />
        </mxCell>
        <mxCell id="a7vQmODgoS0YRXL1s6T2-23" value="database" style="shape=cylinder3;whiteSpace=wrap;html=1;boundedLbl=1;backgroundOutline=1;size=15;" parent="1" vertex="1">
          <mxGeometry x="310" y="560" width="60" height="80" as="geometry" />
        </mxCell>
        <mxCell id="a7vQmODgoS0YRXL1s6T2-24" value="Slide" style="rounded=0;whiteSpace=wrap;html=1;" parent="1" vertex="1">
          <mxGeometry x="370" y="120" width="120" height="60" as="geometry" />
        </mxCell>
        <mxCell id="voqiiZO-ORipLe6eXDfp-1" style="edgeStyle=orthogonalEdgeStyle;rounded=0;orthogonalLoop=1;jettySize=auto;html=1;entryX=0;entryY=0.5;entryDx=0;entryDy=0;" parent="1" source="QhW_c4WJMgv_Kwbsom_R-2" target="a7vQmODgoS0YRXL1s6T2-14" edge="1">
          <mxGeometry relative="1" as="geometry">
            <Array as="points">
              <mxPoint x="-300" y="490" />
              <mxPoint x="-300" y="225" />
            </Array>
          </mxGeometry>
        </mxCell>
        <mxCell id="voqiiZO-ORipLe6eXDfp-2" style="edgeStyle=orthogonalEdgeStyle;rounded=0;orthogonalLoop=1;jettySize=auto;html=1;exitX=0.491;exitY=1.064;exitDx=0;exitDy=0;entryX=0.75;entryY=0;entryDx=0;entryDy=0;exitPerimeter=0;" parent="1" source="a7vQmODgoS0YRXL1s6T2-25" target="QhW_c4WJMgv_Kwbsom_R-3" edge="1">
          <mxGeometry relative="1" as="geometry" />
        </mxCell>
        <mxCell id="voqiiZO-ORipLe6eXDfp-3" style="edgeStyle=orthogonalEdgeStyle;rounded=0;orthogonalLoop=1;jettySize=auto;html=1;exitX=0.5;exitY=1;exitDx=0;exitDy=0;entryX=0.5;entryY=1;entryDx=0;entryDy=0;entryPerimeter=0;" parent="1" source="QhW_c4WJMgv_Kwbsom_R-1" target="a7vQmODgoS0YRXL1s6T2-23" edge="1">
          <mxGeometry relative="1" as="geometry" />
        </mxCell>
        <mxCell id="kC6aO7tEve5d9k2F0OwN-2" value="Thay đổi mảng tính năng của hành động" style="edgeLabel;html=1;align=center;verticalAlign=middle;resizable=0;points=[];" parent="voqiiZO-ORipLe6eXDfp-3" vertex="1" connectable="0">
          <mxGeometry x="-0.0802" y="-3" relative="1" as="geometry">
            <mxPoint y="7" as="offset" />
          </mxGeometry>
        </mxCell>
        <mxCell id="OYDhkcO9sHFflH4jiFGf-7" style="edgeStyle=orthogonalEdgeStyle;rounded=0;orthogonalLoop=1;jettySize=auto;html=1;exitX=0.5;exitY=0;exitDx=0;exitDy=0;" parent="1" source="OYDhkcO9sHFflH4jiFGf-3" target="a7vQmODgoS0YRXL1s6T2-24" edge="1">
          <mxGeometry relative="1" as="geometry">
            <Array as="points" />
          </mxGeometry>
        </mxCell>
        <mxCell id="OYDhkcO9sHFflH4jiFGf-8" value="Điều khiển" style="edgeLabel;html=1;align=center;verticalAlign=middle;resizable=0;points=[];" parent="OYDhkcO9sHFflH4jiFGf-7" vertex="1" connectable="0">
          <mxGeometry x="0.4569" y="2" relative="1" as="geometry">
            <mxPoint x="2" as="offset" />
          </mxGeometry>
        </mxCell>
        <mxCell id="OYDhkcO9sHFflH4jiFGf-9" style="edgeStyle=orthogonalEdgeStyle;rounded=0;orthogonalLoop=1;jettySize=auto;html=1;entryX=0;entryY=0.5;entryDx=0;entryDy=0;" parent="1" source="a7vQmODgoS0YRXL1s6T2-25" target="a7vQmODgoS0YRXL1s6T2-19" edge="1">
          <mxGeometry relative="1" as="geometry" />
        </mxCell>
        <mxCell id="kC6aO7tEve5d9k2F0OwN-10" style="edgeStyle=orthogonalEdgeStyle;rounded=0;orthogonalLoop=1;jettySize=auto;html=1;entryX=1;entryY=0.5;entryDx=0;entryDy=0;entryPerimeter=0;exitX=0.5;exitY=1;exitDx=0;exitDy=0;" parent="1" source="kC6aO7tEve5d9k2F0OwN-16" target="a7vQmODgoS0YRXL1s6T2-23" edge="1">
          <mxGeometry relative="1" as="geometry">
            <mxPoint x="430" y="480.0000000000002" as="sourcePoint" />
          </mxGeometry>
        </mxCell>
        <mxCell id="kC6aO7tEve5d9k2F0OwN-11" value="Nhận dữ liệu" style="edgeLabel;html=1;align=center;verticalAlign=middle;resizable=0;points=[];" parent="kC6aO7tEve5d9k2F0OwN-10" vertex="1" connectable="0">
          <mxGeometry x="-0.1158" y="3" relative="1" as="geometry">
            <mxPoint as="offset" />
          </mxGeometry>
        </mxCell>
        <mxCell id="kC6aO7tEve5d9k2F0OwN-17" style="edgeStyle=orthogonalEdgeStyle;rounded=0;orthogonalLoop=1;jettySize=auto;html=1;entryX=1;entryY=0.5;entryDx=0;entryDy=0;" parent="1" source="a7vQmODgoS0YRXL1s6T2-18" target="Y7PyBvBHvJIJX8ZfNPcy-6" edge="1">
          <mxGeometry relative="1" as="geometry" />
        </mxCell>
      </root>
    </mxGraphModel>
  </diagram>
  <diagram id="syDYdaDRhqQtvbaVzXfY" name="Tutorial">
    <mxGraphModel dx="1396" dy="1014" grid="1" gridSize="10" guides="1" tooltips="1" connect="1" arrows="1" fold="1" page="0" pageScale="1" pageWidth="850" pageHeight="1100" math="0" shadow="0">
      <root>
        <mxCell id="0" />
        <mxCell id="1" parent="0" />
        <mxCell id="I7ew1-pkhJOJfut6V-NH-1" value="Setup" style="rounded=0;whiteSpace=wrap;html=1;" vertex="1" parent="1">
          <mxGeometry x="-100" y="-60" width="120" height="60" as="geometry" />
        </mxCell>
      </root>
    </mxGraphModel>
  </diagram>
</mxfile>
